<svg width="100%" height="100%" viewBox="257.613 255.328 465.691 521.524" version="1.1" xmlns="http://www.w3.org/2000/svg" xmlns:xlink="http://www.w3.org/1999/xlink" xmlns:serif="http://www.serif.com/" style="fill-rule:evenodd;clip-rule:evenodd;stroke-linejoin:round;stroke-miterlimit:2;" xmlns:bx="https://boxy-svg.com">
  <defs>
    <bx:export>
      <bx:file format="svg"></bx:file>
    </bx:export>
  </defs>
  <path d="M528.035,675.905c-8.422,-11.778 -14.937,-24.126 -18.193,-37.929c-5.552,-23.534 2.145,-43.583 16.833,-61.658c13.737,-16.905 31.21,-29.452 48.939,-41.641c21.688,-14.912 44.395,-28.313 65.572,-43.989c9.519,-7.047 18.796,-14.392 26.341,-23.646c3.599,-4.413 6.688,-9.125 8.562,-14.57c3.639,-10.571 0.912,-19.515 -6.871,-27.191c0.947,4.02 3.326,7.536 4.09,11.668c2.221,12.007 -2.934,21.438 -10.44,29.942c-13.501,15.298 -30.443,26.311 -47.298,37.39c-23.936,15.732 -48.906,29.905 -71.704,47.351c-11.824,9.048 -22.631,19.211 -31.442,31.264c-19.497,26.671 -19.116,54.272 -3.372,82.441c11.618,20.786 27.655,37.853 45.155,53.696c2.306,2.088 5.11,3.731 6.533,6.72c-1.238,2.185 -3.285,1.46 -4.95,1.464c-28.496,0.059 -56.992,0.014 -85.487,0.107c-3.143,0.01 -5.3,-0.925 -7.111,-3.56c-7.179,-10.447 -14.407,-20.902 -19.282,-32.641c-2.218,-5.341 -5.231,-7.635 -10.923,-6.804c-2.594,0.378 -5.311,-0.052 -8.294,1.536c4.071,14.516 12.198,27.091 19.066,40.026c-1.723,1.913 -3.496,1.355 -5.063,1.358c-31.662,0.046 -63.324,0.022 -94.986,0.092c-3.312,0.007 -5.533,-0.395 -6.398,-4.401c-6.536,-30.296 -7.116,-60.4 2.355,-90.243c4.755,-14.984 12.712,-28.183 22.874,-40.103c0.54,-0.633 1.104,-1.254 1.724,-1.805c0.358,-0.318 0.85,-0.485 1.237,-0.695c1.79,0.266 2.397,1.772 3.324,2.903c5.707,6.955 11.409,13.914 17.101,20.88c1.805,2.209 3.467,3.475 5.93,0.535c14.669,-17.508 29.082,-35.193 40.323,-55.203c3.29,-5.857 5.873,-12.055 6.831,-18.668c0.647,-4.468 3.138,-6.41 6.784,-8.241c29.939,-15.035 60.774,-28.07 91.469,-41.435c19.838,-8.637 39.667,-17.354 58.183,-28.71c5.85,-3.588 11.335,-7.616 16.143,-12.526c11.517,-11.761 10.446,-23.993 -3.309,-33.493c1.325,1.724 2.801,3.354 3.95,5.188c6.446,10.288 4.17,20.681 -6.411,29.998c-10.104,8.897 -21.813,15.135 -33.783,21.092c-28.662,14.265 -58.692,25.339 -87.966,38.17c-13.116,5.749 -26.061,11.887 -39.088,17.839c-1.191,0.544 -2.415,1.015 -3.588,1.506c-3.041,-4.905 -2.466,-6.983 2.599,-9.285c28.059,-12.758 56.832,-23.814 85.256,-35.702c20.895,-8.74 41.904,-17.29 61.086,-29.577c6.059,-3.881 11.768,-8.15 15.846,-14.278c4.207,-6.321 4.021,-12.457 -0.375,-18.551c-6.497,-9.008 -15.965,-13.993 -25.653,-18.493c-26.573,-12.345 -54.858,-19.469 -83.117,-26.531c-24.034,-6.006 -48.251,-11.281 -72.293,-17.257c-10.026,-2.492 -19.653,-6.329 -28.436,-11.974c-12.788,-8.22 -12.846,-19.059 0.073,-27.507c14.106,-9.224 29.934,-14.458 45.978,-19.048c4.548,-1.301 9.001,-3.428 14.386,-2.826c-1.024,2.069 -2.765,2.077 -4.232,2.546c-14.437,4.611 -28.93,9.068 -42.25,16.546c-3.216,1.806 -6.308,3.741 -8.852,6.439c-5.08,5.388 -4.987,10.5 0.497,15.577c5.111,4.732 11.421,7.472 17.858,9.777c17.151,6.143 35.031,9.156 52.956,11.901c48.337,7.403 96.663,14.838 143.469,29.664c3.497,1.108 6.126,2.851 8.301,5.892c4.065,5.683 8.556,11.061 12.868,16.567c1.002,1.279 1.748,2.219 1.131,4.346c-1.151,3.969 4.019,4.699 4.969,7.953c1.135,-1.608 -1.292,-2.872 0.141,-4.668c3.498,2.652 5.664,0.01 7.415,-2.57c1.79,-2.637 4.868,-3.97 6.297,-6.949c0.686,-1.43 2.261,-1.223 3.502,-0.395c11.566,7.723 22.665,16.071 23.791,31.406c0.904,12.316 -5.5,21.969 -13.413,30.689c-13.454,14.827 -29.96,25.864 -46.232,37.198c-22.41,15.609 -45.755,29.93 -66.44,47.921c-8.811,7.664 -17.162,15.774 -23.974,25.365c-15.079,21.231 -16.933,43.455 -5.466,66.86c9.586,19.564 24.353,34.838 40.326,49.134c9.069,8.117 18.635,15.627 28.299,23.016c1.042,0.797 2.235,1.484 2.954,4.134c-7.859,-0.667 -15.971,2.866 -22.603,-2.229c-18.531,-14.238 -35.939,-29.759 -50.026,-49.101m-94.485,-54.566c-0.082,-1.795 1.09,-3.515 0.387,-5.329c-1.306,-1.105 -2.942,-0.617 -4.326,-1.082c-5.088,-1.711 -7.617,0.336 -9.008,5.311c-2.663,9.529 -3.932,19.168 -3.61,29.047c0.356,10.923 0.316,10.834 11.187,10.444c3.473,-0.125 4.526,-1.187 4.131,-4.85c-1.177,-10.929 -1.326,-21.888 1.239,-33.542m15.516,-45.773c-5.825,6.245 -12.082,12.164 -15.84,20.066c6.185,3.44 8.73,2.905 12.039,-2.141c4.579,-6.984 9.793,-13.449 15.703,-19.357c2.178,-2.178 4.26,-4.45 6.532,-6.832c-6.918,-2.782 -7.085,-2.772 -11.525,1.459c-2.169,2.067 -4.279,4.196 -6.908,6.805m28.662,-23.265c2.857,3.549 5.886,2.515 9.02,0.397c7.414,-5.01 14.881,-9.942 22.268,-14.991c2.24,-1.531 5.021,-2.366 6.865,-4.688c-3.119,-2.506 -5.754,-1.57 -8.479,0.073c-9.934,5.993 -19.795,12.098 -29.673,19.208m80.483,-46.136c-9.797,5.042 -19.594,10.084 -29.704,15.288c1.893,1.805 3.429,2.607 5.041,1.749c9.602,-5.109 19.143,-10.333 28.659,-15.493c-0.779,-2.205 -1.991,-2.228 -3.996,-1.544m31.718,-16.685c-4.832,2.96 -10.271,4.915 -14.471,9.002c9.883,-1.666 17.601,-7.79 27.013,-12.577c-5.514,-1.655 -8.389,1.803 -12.542,3.575m22.555,-10.707c6.365,-2.445 11.394,-6.774 16.953,-10.98c-1.911,-1.421 -2.963,-0.92 -3.927,-0.24c-4.212,2.971 -8.422,5.944 -12.568,9.005c-0.565,0.417 -2.301,0.641 -0.458,2.215m26.402,-19.442c2.827,-2.672 5.651,-5.346 6.388,-10.451c-5.576,2.009 -6.501,6.983 -9.653,9.809c1.035,1.204 1.845,1.109 3.265,0.643m6.535,-18.637c0.657,1.984 2.273,2.638 2.898,0.579c0.765,-2.521 1.658,-5.713 -1.4,-7.968c-2.496,1.976 -1.221,4.476 -1.498,7.389Z" style="fill:#ffffff;fill-rule:nonzero;"></path>
  <path d="M417.416,572.354c-8.602,12.703 -17.941,24.367 -27.32,35.488c-1.977,0.049 -2.73,-0.917 -3.461,-1.793c-12.711,-15.221 -25.152,-30.638 -35.176,-47.842c-7.166,-12.298 -10.144,-25.267 -6.432,-39.289c4.993,-18.856 22.289,-33.174 44.304,-32.969c21.574,0.2 39.154,14.519 43.893,34.852c2.683,11.51 0.777,22.474 -4.376,32.966c-3.167,6.447 -7.128,12.412 -11.431,18.587m-34.036,-18.915c1.819,0.154 3.639,0.449 5.458,0.439c9.376,-0.051 16.254,-4.399 20.416,-12.678c4.006,-7.968 3.343,-15.912 -1.984,-23.034c-5.652,-7.556 -13.473,-10.593 -22.808,-8.957c-9.82,1.721 -17.401,9.653 -18.161,18.603c-1.058,12.452 4.496,21.104 17.08,25.625Z" style="fill:#ffffff;fill-rule:nonzero;"></path>
  <path d="M672.388,332.646c11.105,13.688 11.991,28.152 4.187,43.167c-7.422,14.281 -17.918,26.45 -27.827,39c-1.365,1.729 -2.913,2.297 -4.528,0.343c-11.565,-13.997 -23.749,-27.627 -30.58,-44.794c-6.497,-16.33 -1.316,-33.559 12.283,-42.427c15.291,-9.97 33.234,-8.245 46.464,4.711m-21.246,7.646c-4.375,-1.646 -8.559,-0.723 -12.58,1.137c-8.259,3.821 -11.915,14.033 -8.171,22.541c3.679,8.359 13.206,12.428 21.579,9.216c7.079,-2.716 11.586,-8.694 11.673,-15.904c0.1,-8.337 -4.229,-13.723 -12.501,-16.99Z" style="fill:#ffffff;fill-rule:nonzero;"></path>
  <path d="M311.996,630.169c8.409,-21.276 21.911,-38.39 38.579,-53.185c1.436,-1.274 2.664,-3.913 5.279,-1.385c3.719,3.595 4.731,7.243 2.31,9.672c-6.96,6.983 -13.312,14.457 -18.653,22.753c-11.96,18.582 -17.983,39.099 -20.304,60.95c-1.919,18.064 -0.214,35.87 2.686,53.64c0.526,3.222 -0.18,4.828 -3.642,4.698c-1.996,-0.075 -3.997,-0.005 -5.996,-0.009c-8.045,-0.017 -8.332,0.015 -9.217,-7.79c-3.045,-26.837 -2.547,-53.464 5.636,-79.521c0.997,-3.174 2.117,-6.31 3.323,-9.824Z" style="fill:#ffffff;fill-rule:nonzero;"></path>
</svg>